<svg width="30" height="30" viewBox="0 0 30 30" fill="none" xmlns="http://www.w3.org/2000/svg">
<path d="M28.9382 17.5043C28.9287 17.5572 28.922 17.6106 28.912 17.6634L28.8607 17.3605C28.8887 17.4077 28.912 17.4567 28.9382 17.5043C29.093 16.6595 29.1743 15.7946 29.1743 14.9302C29.1743 13.0134 28.7999 11.1536 28.0602 9.40291C27.3466 7.71184 26.3256 6.19308 25.0238 4.88914C23.724 3.5852 22.2079 2.56174 20.5218 1.84642C18.7758 1.10583 16.9206 0.730559 15.0083 0.730559C14.1071 0.730559 13.2044 0.815333 12.3259 0.98444C12.324 0.984841 12.3216 0.984841 12.3193 0.985343C12.3687 1.01151 12.4186 1.03486 12.467 1.06203L12.1691 1.01531C12.219 1.00579 12.2694 0.995367 12.3193 0.985343C11.1139 0.342896 9.7585 0 8.3864 0C6.1463 0 4.0402 0.874385 2.4563 2.4627C0.87275 4.05042 0 6.1616 0 8.40711C0 9.83635 0.36677 11.2412 1.0552 12.4828C1.0642 12.4314 1.0704 12.3795 1.0804 12.3281L1.1317 12.6257C1.1051 12.5791 1.0818 12.5304 1.0552 12.4828C0.91551 13.2872 0.84187 14.1092 0.84187 14.9302C0.84187 16.8476 1.2162 18.7068 1.956 20.458C2.6686 22.1496 3.6901 23.6675 4.9904 24.9714C6.2922 26.2753 7.8063 27.3002 9.4943 28.0136C11.2403 28.7556 13.096 29.1313 15.0083 29.1313C15.8407 29.1313 16.675 29.0551 17.4893 28.9104C17.4418 28.8837 17.3933 28.8595 17.3448 28.8313L17.6475 28.8846C17.5952 28.8946 17.5425 28.9009 17.4893 28.9104C18.744 29.6219 20.1645 30 21.615 30C23.8546 30 25.9598 29.1271 27.5437 27.5383C29.1282 25.9515 30 23.8398 30 21.5944C30 20.1603 29.6313 18.7507 28.9382 17.5043ZM15.0649 23.627C10.0321 23.627 7.7807 21.1467 7.7807 19.2879C7.7807 18.3344 8.4829 17.6663 9.4506 17.6663C11.6042 17.6663 11.0465 20.7662 15.0649 20.7662C17.122 20.7662 18.258 19.6465 18.258 18.5006C18.258 17.8116 17.9188 17.0476 16.5643 16.7128L12.0879 15.5927C8.4829 14.6864 7.8286 12.7328 7.8286 10.8965C7.8286 7.08363 11.4099 5.65208 14.7731 5.65208C17.8712 5.65208 21.5233 7.36841 21.5233 9.65582C21.5233 10.636 20.6767 11.206 19.7094 11.206C17.8712 11.206 18.2095 8.65571 14.5071 8.65571C12.6699 8.65571 11.6522 9.48962 11.6522 10.6831C11.6522 11.8742 13.1032 12.2547 14.3631 12.5424L17.6765 13.2795C21.3057 14.0902 22.226 16.2142 22.226 18.2149C22.226 21.3133 19.8534 23.627 15.0649 23.627ZM17.3448 28.8313C17.3933 28.8595 17.4418 28.8837 17.4893 28.9104C17.5425 28.9009 17.5952 28.8946 17.6475 28.8846L17.3448 28.8313ZM28.912 17.6634C28.922 17.6106 28.9287 17.5572 28.9382 17.5043C28.912 17.4567 28.8887 17.4077 28.8607 17.3605L28.912 17.6634ZM1.0804 12.3281C1.0704 12.3795 1.0642 12.4314 1.0552 12.4828C1.0818 12.5304 1.1051 12.5791 1.1317 12.6257L1.0804 12.3281ZM12.467 1.06203C12.4186 1.03486 12.3687 1.01151 12.3193 0.985343C12.2694 0.995367 12.219 1.00579 12.1691 1.01531L12.467 1.06203Z" fill="#F5F5F5"/>
</svg>
