<svg width="35" height="30" viewBox="0 0 35 30" fill="none" xmlns="http://www.w3.org/2000/svg">
<path fill-rule="evenodd" clip-rule="evenodd" d="M26.5689 29.7536C28.6657 30.6647 29.452 28.7557 29.452 28.7557L35 1.07554C34.9564 -0.790093 32.4226 0.338001 32.4226 0.338001L1.36243 12.4426C1.36243 12.4426 -0.122873 12.9633 0.00819019 13.8744C0.13924 14.7855 1.31874 15.2194 1.31874 15.2194L9.13846 17.8225C9.13846 17.8225 11.4975 25.5018 11.978 26.9769C12.4148 28.4086 12.808 28.4521 12.808 28.4521C13.2448 28.6256 13.638 28.3219 13.638 28.3219L18.7055 23.7664L26.5689 29.7536ZM27.9231 5.9781C27.9231 5.9781 29.0152 5.32734 28.9715 5.9781C28.9715 5.9781 29.1462 6.06488 28.5784 6.67231C28.0541 7.19285 15.6912 18.213 14.0312 19.688C13.9001 19.7748 13.8127 19.9049 13.8127 20.0785L13.3322 24.1568C13.2448 24.5906 12.677 24.634 12.5458 24.2436L10.4927 17.5621C10.4053 17.3019 10.4927 16.9981 10.7547 16.8245L27.9231 5.9781Z" fill="#F5F5F5"/>
</svg>
