<svg width="30" height="30" viewBox="0 0 30 30" fill="none" xmlns="http://www.w3.org/2000/svg">
<path d="M25.6676 4.37839C22.8883 1.5405 19.0464 0 15.1226 0C6.78476 0 0.0817707 6.72975 0.163541 14.9189C0.163541 17.5135 0.899255 20.027 2.12537 22.2973L0 30L7.92921 27.973C10.1362 29.1891 12.5886 29.7568 15.0408 29.7568C23.297 29.7568 30 23.027 30 14.8378C30 10.8648 28.4469 7.13518 25.6676 4.37839ZM15.1226 27.2432C12.9156 27.2432 10.7084 26.6757 8.82836 25.5405L8.33784 25.2973L3.5968 26.5135L4.82292 21.8919L4.49595 21.4054C0.899255 15.6486 2.61578 8.02704 8.50139 4.4595C14.3869 0.891889 21.9891 2.59457 25.5858 8.43246C29.1825 14.2702 27.466 21.8109 21.5804 25.3784C19.7003 26.5946 17.4114 27.2432 15.1226 27.2432ZM22.3161 18.2432L21.4169 17.8378C21.4169 17.8378 20.109 17.2702 19.2916 16.8648C19.2098 16.8648 19.128 16.7838 19.0464 16.7838C18.8011 16.7838 18.6376 16.8648 18.4741 16.9459C18.4741 16.9459 18.3924 17.027 17.248 18.3243C17.1662 18.4865 17.0028 18.5675 16.8392 18.5675H16.7575C16.6758 18.5675 16.5123 18.4865 16.4305 18.4054L16.0219 18.2432C15.1226 17.8378 14.3052 17.3514 13.6513 16.7027C13.4877 16.5405 13.2425 16.3784 13.079 16.2162C12.5068 15.6486 11.9346 15 11.5259 14.2702L11.4441 14.1081C11.3624 14.027 11.3624 13.9459 11.2807 13.7838C11.2807 13.6216 11.2807 13.4595 11.3624 13.3784C11.3624 13.3784 11.6893 12.973 11.9346 12.7297C12.0981 12.5675 12.1798 12.3243 12.3434 12.1622C12.5068 11.9189 12.5886 11.5946 12.5068 11.3514C12.4251 10.9459 11.4441 8.75679 11.1989 8.27025C11.0354 8.02704 10.872 7.94593 10.6268 7.86482H10.3814C10.218 7.86482 9.97281 7.86482 9.7275 7.86482C9.56407 7.86482 9.40053 7.94593 9.2371 7.94593L9.15533 8.02703C8.99179 8.10814 8.82836 8.27025 8.66482 8.35136C8.50138 8.51346 8.41961 8.67568 8.25618 8.83779C7.6839 9.56754 7.35693 10.4595 7.35693 11.3514C7.35693 12 7.52047 12.6486 7.76567 13.2162L7.84744 13.4595C8.58316 15 9.56407 16.3784 10.872 17.5946L11.1989 17.9189C11.4441 18.1622 11.6893 18.3243 11.8529 18.5675C13.5695 20.027 15.5313 21.0811 17.7384 21.6486C17.9837 21.7298 18.3107 21.7297 18.5559 21.8109C18.8011 21.8109 19.128 21.8109 19.3733 21.8109C19.782 21.8109 20.2725 21.6486 20.5995 21.4865C20.8447 21.3243 21.0082 21.3243 21.1716 21.1622L21.3352 21C21.4986 20.8378 21.6622 20.7568 21.8256 20.5946C21.9891 20.4325 22.1526 20.2702 22.2343 20.1081C22.3979 19.7838 22.4795 19.3784 22.5613 18.973C22.5613 18.8109 22.5613 18.5675 22.5613 18.4054C22.5613 18.4054 22.4795 18.3243 22.3161 18.2432Z" fill="#F5F5F5"/>
</svg>
