<svg width="30" height="30" viewBox="0 0 30 30" fill="none" xmlns="http://www.w3.org/2000/svg">
<path d="M10.0012 15C10.0012 12.2387 12.2392 9.9996 15.0006 9.9996C17.762 9.9996 20.0012 12.2387 20.0012 15C20.0012 17.7613 17.762 20.0004 15.0006 20.0004C12.2392 20.0004 10.0012 17.7613 10.0012 15ZM7.29798 15C7.29798 19.254 10.7464 22.7023 15.0006 22.7023C19.2548 22.7023 22.7032 19.254 22.7032 15C22.7032 10.746 19.2548 7.2977 15.0006 7.2977C10.7464 7.2977 7.29798 10.746 7.29798 15ZM21.208 6.9923C21.2079 7.3483 21.3133 7.6963 21.5111 7.9924C21.7088 8.2885 21.9898 8.5193 22.3187 8.6557C22.6475 8.7921 23.0094 8.8279 23.3586 8.7586C23.7078 8.6892 24.0287 8.5179 24.2805 8.2663C24.5324 8.0147 24.7039 7.694 24.7735 7.3449C24.8431 6.9957 24.8076 6.6338 24.6715 6.3048C24.5354 5.9759 24.3048 5.6947 24.0089 5.4968C23.7128 5.2988 23.3649 5.1931 23.0089 5.193H23.0081C22.531 5.1932 22.0734 5.3828 21.7359 5.7202C21.3984 6.0576 21.2085 6.5151 21.208 6.9923ZM8.94035 27.2096C7.47789 27.143 6.68296 26.8994 6.15464 26.6936C5.45431 26.421 4.95459 26.0963 4.42927 25.5716C3.90385 25.047 3.57863 24.5478 3.30722 23.8475C3.10131 23.3195 2.85771 22.5244 2.7912 21.0619C2.7185 19.4808 2.704 19.0058 2.704 15.0001C2.704 10.9944 2.7197 10.5208 2.7912 8.9383C2.85781 7.4759 3.10321 6.6823 3.30722 6.1528C3.57983 5.4524 3.90465 4.9528 4.42927 4.4274C4.95389 3.902 5.45311 3.5768 6.15464 3.3054C6.68266 3.0995 7.47789 2.8559 8.94035 2.7894C10.5215 2.7167 10.9965 2.7022 15.0006 2.7022C19.0047 2.7022 19.4802 2.7179 21.0626 2.7894C22.5251 2.856 23.3187 3.1014 23.8484 3.3054C24.5487 3.5768 25.0484 3.9028 25.5737 4.4274C26.0991 4.952 26.4232 5.4524 26.6958 6.1528C26.9017 6.6808 27.1453 7.4759 27.2118 8.9383C27.2845 10.5208 27.2991 10.9944 27.2991 15.0001C27.2991 19.0058 27.2845 19.4795 27.2118 21.0619C27.1452 22.5244 26.9004 23.3192 26.6958 23.8475C26.4232 24.5478 26.0984 25.0475 25.5737 25.5716C25.0491 26.0958 24.5487 26.421 23.8484 26.6936C23.3203 26.8996 22.5251 27.1432 21.0626 27.2096C19.4815 27.2824 19.0065 27.2969 15.0006 27.2969C10.9947 27.2969 10.521 27.2824 8.94035 27.2096ZM8.81614 0.0908403C7.21928 0.16356 6.12804 0.41676 5.1751 0.78756C4.18816 1.1705 3.35272 1.6842 2.51779 2.5177C1.68296 3.3512 1.17054 4.188 0.787591 5.1749C0.416776 6.1284 0.163566 7.219 0.090843 8.8158C0.0169201 10.4152 0 10.9265 0 15C0 19.0735 0.0169201 19.5848 0.090843 21.1842C0.163566 22.7812 0.416776 23.8716 0.787591 24.8251C1.17054 25.8114 1.68306 26.6491 2.51779 27.4823C3.35262 28.3154 4.18816 28.8284 5.1751 29.2124C6.12984 29.5832 7.21928 29.8364 8.81614 29.9092C10.4164 29.9819 10.9269 30 15.0006 30C19.0743 30 19.5856 29.9831 21.185 29.9092C22.7821 29.8364 23.8725 29.5832 24.8261 29.2124C25.8124 28.8284 26.6485 28.3158 27.4834 27.4823C28.3182 26.6488 28.8296 25.8114 29.2136 24.8251C29.5844 23.8716 29.8388 22.781 29.9104 21.1842C29.9831 19.5836 30 19.0735 30 15C30 10.9265 29.9831 10.4152 29.9104 8.8158C29.8376 7.2188 29.5844 6.1278 29.2136 5.1749C28.8296 4.1886 28.3169 3.3526 27.4834 2.5177C26.6499 1.6829 25.8124 1.1705 24.8273 0.78756C23.8726 0.41676 22.7819 0.16236 21.1862 0.0908403C19.5868 0.0181203 19.0755 0 15.0018 0C10.9281 0 10.4164 0.0169203 8.81614 0.0908403Z" />
</svg>
