<svg width="95" height="36" viewBox="0 0 95 36" fill="none" xmlns="http://www.w3.org/2000/svg">
<path d="M57.4695 5.93739H63.7436L67.7043 0H61.3982L57.4695 5.93739Z" fill="#D6D6D6"/>
<path fill-rule="evenodd" clip-rule="evenodd" d="M0 8.2242H9.20941C14.5621 8.2242 18.8913 9.67703 18.8913 15.1467C18.8913 17.5396 17.632 20.2745 15.664 21.1293V21.2999C18.1043 22.0691 20.0721 24.1204 20.0721 27.7953C20.0721 33.5214 15.5067 35.9998 9.99659 35.9998H0V8.2242ZM9.05203 19.078C11.256 19.078 12.2794 17.9672 12.2794 16.2576C12.2794 14.548 11.256 13.8647 9.05203 13.8647H6.76933V19.078H9.05203ZM9.52434 30.3595C12.2006 30.3595 13.4602 29.3338 13.4602 27.2826C13.4602 25.2314 12.2006 24.4622 9.52434 24.4622H6.76933V30.3595H9.52434Z" fill="#D6D6D6"/>
<path d="M24.0874 8.2242H30.8567V36H24.0874V8.2242Z" fill="#D6D6D6"/>
<path d="M36.5244 8.2242H43.2938V29.8467H52.9757V36H36.5244V8.2242Z" fill="#D6D6D6"/>
<path d="M57.3845 8.2242H64.1538V36H57.3845V8.2242Z" fill="#D6D6D6"/>
<path d="M87.4537 8.2242H94.6953V36H88.5556L89.4214 17.8816H89.2642L87.1388 24.5478L83.2142 36H81.1457L77.2207 24.5478L75.1742 17.8816H75.0171L75.8829 36H69.8215V8.2242H77.0632L82.336 24.2197L87.4537 8.2242Z" fill="#D6D6D6"/>
</svg>
