<svg width="1530" height="530" viewBox="0 0 1530 530" fill="none" xmlns="http://www.w3.org/2000/svg">
<path d="M842.225 87.4115H934.173L992.218 0H899.801L842.225 87.4115Z" fill="#C4C4C4"/>
<path fill-rule="evenodd" clip-rule="evenodd" d="M0 121.079H134.965C213.41 121.079 276.856 142.467 276.856 222.994C276.856 258.222 258.401 298.485 229.559 311.07V313.582C265.322 324.907 294.16 355.105 294.16 409.208C294.16 493.509 227.253 529.997 146.502 529.997H0V121.079ZM132.659 280.871C164.958 280.871 179.957 264.517 179.957 239.348C179.957 214.18 164.958 204.12 132.659 204.12H99.2057V280.871H132.659ZM139.581 446.959C178.802 446.959 197.261 431.859 197.261 401.661C197.261 371.462 178.802 360.138 139.581 360.138H99.2057V446.959H139.581Z" fill="#C4C4C4"/>
<path d="M353.005 121.079H452.211V530H353.005V121.079Z" fill="#C4C4C4"/>
<path d="M535.272 121.079H634.478V439.409H776.368V530H535.272V121.079Z" fill="#C4C4C4"/>
<path d="M840.979 121.079H940.185V530H840.979V121.079Z" fill="#C4C4C4"/>
<path d="M1281.65 121.079H1387.78V530H1297.8L1310.49 263.257H1308.18L1277.03 361.398L1219.52 530H1189.2L1131.68 361.398L1101.69 263.257H1099.39L1112.08 530H1023.25V121.079H1129.37L1206.65 356.568L1281.65 121.079Z" fill="#C4C4C4"/>
<path fill-rule="evenodd" clip-rule="evenodd" d="M1530 152.818L1468.67 120.801V138.822L1476.69 142.939V171.022L1468.67 175.231V193.253L1530 160.961V152.818ZM1490.26 163.979V149.981L1503.75 157.026L1490.26 163.979Z" fill="#C4C4C4"/>
<path d="M1501.63 265.798H1499.34C1492.24 265.81 1485.35 263.067 1479.85 258.038C1474.36 253.008 1470.59 246.002 1469.19 238.213C1467.79 230.424 1468.84 222.333 1472.18 215.317C1475.51 208.302 1480.91 202.795 1487.47 199.736C1494.02 196.676 1501.32 196.253 1508.12 198.537C1514.92 200.822 1520.81 205.673 1524.77 212.265C1528.73 218.857 1530.53 226.782 1529.86 234.692C1529.19 242.601 1526.09 250.006 1521.09 255.645L1509.8 242.93C1512.44 239.855 1513.91 235.754 1513.89 231.493C1513.88 228.707 1513.24 225.969 1512.01 223.542C1510.79 221.116 1509.03 219.081 1506.9 217.634C1504.77 216.186 1502.35 215.373 1499.86 215.274C1497.37 215.175 1494.9 215.792 1492.68 217.066C1490.47 218.341 1488.58 220.23 1487.21 222.553C1485.83 224.876 1485.01 227.555 1484.83 230.334C1484.64 233.113 1485.1 235.898 1486.15 238.424C1487.2 240.949 1488.81 243.13 1490.84 244.758V231.493H1501.63L1501.63 265.798Z" fill="#C4C4C4"/>
<path d="M1530 275.679V318.311H1516.67V293.705H1506.7V315.475H1493.12V293.705H1481.84V318.311H1468.67V275.681L1530 275.679Z" fill="#C4C4C4"/>
<path d="M1468.67 381.616L1497.7 349.23H1468.67V331.207H1530V338.526L1501.05 371.003H1530V389.022H1468.67V381.616Z" fill="#C4C4C4"/>
<path d="M1509.72 442.45C1511.04 440.922 1512.07 439.115 1512.76 437.136C1513.45 435.158 1513.78 433.046 1513.73 430.923C1513.69 428.296 1513.07 425.72 1511.93 423.421C1510.8 421.121 1509.18 419.168 1507.21 417.73C1505.24 416.293 1502.99 415.415 1500.66 415.175C1498.32 414.934 1495.96 415.337 1493.79 416.349C1491.63 417.36 1489.71 418.95 1488.22 420.979C1486.73 423.008 1485.71 425.414 1485.24 427.989C1484.77 430.563 1484.87 433.227 1485.53 435.747C1486.19 438.268 1487.39 440.569 1489.03 442.45L1477.75 455.256C1474.17 451.279 1471.52 446.374 1470.04 440.977C1468.56 435.579 1468.29 429.856 1469.26 424.316C1470.23 418.776 1472.41 413.589 1475.6 409.217C1478.8 404.844 1482.9 401.421 1487.56 399.252C1492.22 397.082 1497.29 396.232 1502.31 396.779C1507.33 397.325 1512.16 399.25 1516.36 402.383C1520.55 405.516 1524 409.76 1526.38 414.739C1528.76 419.717 1530 425.276 1530 430.922C1530.01 435.407 1529.23 439.851 1527.7 443.996C1526.17 448.142 1523.93 451.907 1521.09 455.073L1509.72 442.45Z" fill="#C4C4C4"/>
<path d="M1491.24 504.934H1468.67V487.097H1491.24L1530 462.031V482.798L1509.56 495.973L1530 509.238V530L1491.24 504.934Z" fill="#C4C4C4"/>
</svg>
